# xmcd
# Track frame offsets:
# 150
# 18085
# 38930
# 54942
# 80147
# 93172
# 113415
# 128215
# 147615
# 162720
# 179880
# 196465
#
# Disc length: 2893 seconds
# Revision: 0
# Processed by: cddbd v1.4PL0 Copyright (c) Steve Scherf et al.
# Submitted via: VisiTrax 2.9.5.181 - For more info visit www.synapsa.com
#
DISCID=a80b4b0c
DTITLE=Ralph and the big bang group - What´s going on in my house?
DYEAR=1999
DGENRE=Blues
TTITLE0=What´s going on in my house?
TTITLE1=There´s another man
TTITLE2=I could really go for you
TTITLE3=I miss you
TTITLE4=I´m on to you
TTITLE5=Change your mind
TTITLE6=Don´t talk
TTITLE7=As the sun goes down
TTITLE8=All the time
TTITLE9=Feeling good
TTITLE10=Down to my knees
TTITLE11=I´m loosing you
EXTD=
EXTT0=
EXTT1=
EXTT2=
EXTT3=
EXTT4=
EXTT5=
EXTT6=
EXTT7=
EXTT8=
EXTT9=
EXTT10=
EXTT11=
PLAYORDER=
